<?xml version="1.0" encoding="UTF-8" standalone="no"?>
<!-- Created with Inkscape (http://www.inkscape.org/) -->

<svg
   xmlns:dc="http://purl.org/dc/elements/1.1/"
   xmlns:cc="http://creativecommons.org/ns#"
   xmlns:rdf="http://www.w3.org/1999/02/22-rdf-syntax-ns#"
   xmlns:svg="http://www.w3.org/2000/svg"
   xmlns="http://www.w3.org/2000/svg"
   xmlns:sodipodi="http://sodipodi.sourceforge.net/DTD/sodipodi-0.dtd"
   xmlns:inkscape="http://www.inkscape.org/namespaces/inkscape"
   width="120mm"
   height="120mm"
   viewBox="-60 -60 120 120"
   sodipodi:docname="skull.svg"
   version="1.1"
   id="svg42922"
   inkscape:version="0.92.4 5da689c313, 2019-01-14">
  <defs
     id="defs42924" />
  <sodipodi:namedview
     pagecolor="#ffffff"
     bordercolor="#666666"
     borderopacity="1.0"
     inkscape:pageopacity="0.0"
     inkscape:pageshadow="2"
     inkscape:zoom="1"
     inkscape:cx="226.77165"
     inkscape:cy="226.77165"
     inkscape:document-units="mm"
     inkscape:current-layer="Template"
     showgrid="false"
     units="mm"
     showguides="true"
     inkscape:guide-bbox="true"
     inkscape:snap-global="true"
     inkscape:snap-bbox="true"
     inkscape:snap-bbox-midpoints="true"
     inkscape:window-width="850"
     inkscape:window-height="832"
     inkscape:window-x="136"
     inkscape:window-y="131"
     inkscape:window-maximized="0"
     inkscape:bbox-paths="true"
     inkscape:bbox-nodes="true"
     inkscape:snap-bbox-edge-midpoints="true"
     inkscape:snap-grids="true"
     id="namedview42912">
    <sodipodi:guide
       orientation="1,0"
       position="226.771653543,226.771653543"
       id="guide2827"
       inkscape:locked="false" />
    <sodipodi:guide
       orientation="0,1"
       position="226.771653543,226.771653543"
       id="guide2829"
       inkscape:locked="false" />
    <inkscape:grid
       type="xygrid"
       id="grid3072"
       empspacing="10"
       visible="true"
       enabled="true"
       snapvisiblegridlinesonly="true"
       units="mm"
       dotted="false"
       spacingx="0.1mm"
       spacingy="0.1mm" />
  </sodipodi:namedview>
  <metadata
     id="metadata2822">
    <rdf:RDF>
      <cc:Work
         rdf:about="">
        <dc:format>image/svg+xml</dc:format>
        <dc:type
           rdf:resource="http://purl.org/dc/dcmitype/StillImage" />
        <dc:title></dc:title>
      </cc:Work>
    </rdf:RDF>
  </metadata>
  <g
     inkscape:label="Layer 1"
     inkscape:groupmode="layer"
     id="Template"
     style="fill:none;stroke:black;stroke-width:0.05">
    <g
       transform="matrix(0.46240376,0,0,0.46240376,-143.33763,-151.71358)"
       id="g35742">
      <g
         id="g35740">
        <path
           id="path35666"
           d="m 271.234,216.614 c 0.144,-0.034 0.131,0.097 0.136,0.204 -0.056,-0.014 -0.067,-0.069 -0.136,-0.069 0,-0.043 0,-0.091 0,-0.135 z"
           inkscape:connector-curvature="0"
           style="clip-rule:evenodd;fill:#808285;fill-rule:evenodd" />
        <path
           id="path35668"
           d="m 257.636,249.718 c 7.481,12.235 10.872,28.556 24.882,34.259 -13.998,-1.126 -20.134,-19.486 -24.269,-31.946 -0.244,-0.735 -1.158,-1.838 -0.613,-2.313 z"
           inkscape:connector-curvature="0"
           style="clip-rule:evenodd;fill:#808285;fill-rule:evenodd" />
        <path
           id="path35670"
           d="m 363.819,249.718 c 0.079,-0.013 0.123,0.013 0.134,0.067 -4.133,10.877 -7.998,26.677 -17.944,32.361 -2.045,1.164 -5.292,2.881 -7.817,1.696 15.728,-4.143 18.409,-21.698 25.627,-34.124 z"
           inkscape:connector-curvature="0"
           style="clip-rule:evenodd;fill:#808285;fill-rule:evenodd" />
        <path
           id="path35672"
           d="m 236.021,282.823 c -2.39,0.459 -4.607,2.354 -6.662,2.65 0.782,-2.151 4.26,-3.431 6.662,-2.65 z"
           inkscape:connector-curvature="0"
           style="clip-rule:evenodd;fill:#808285;fill-rule:evenodd" />
        <path
           id="path35674"
           d="m 393.8,285.473 c -1.957,-0.396 -4.34,-2.129 -6.597,-2.719 2.257,-0.582 5.814,0.528 6.597,2.719 z"
           inkscape:connector-curvature="0"
           style="clip-rule:evenodd;fill:#808285;fill-rule:evenodd" />
        <path
           id="path35676"
           d="m 273.546,284.251 c 3.067,1.519 6.605,4.02 10.875,3.741 -3.956,2.633 -8.469,-1.451 -10.875,-3.741 z"
           inkscape:connector-curvature="0"
           style="clip-rule:evenodd;fill:#808285;fill-rule:evenodd" />
        <path
           id="path35678"
           d="m 336.765,287.923 c 4.335,0.344 7.653,-2.071 10.809,-3.737 -2.286,2.336 -7.012,6.512 -10.809,3.737 z"
           inkscape:connector-curvature="0"
           style="clip-rule:evenodd;fill:#808285;fill-rule:evenodd" />
        <path
           id="path35680"
           d="m 407.256,329.525 c -0.031,0.085 -0.085,0.139 -0.204,0.138 -0.03,-0.146 0.099,-0.133 0.204,-0.138 z"
           inkscape:connector-curvature="0"
           style="clip-rule:evenodd;fill:#808285;fill-rule:evenodd" />
        <path
           id="path35682"
           d="m 212.093,331.493 c 0.207,-0.146 0.396,0.237 0.274,0.479 -0.166,-0.088 -0.139,-0.361 -0.274,-0.479 z"
           inkscape:connector-curvature="0"
           style="clip-rule:evenodd;fill:#808285;fill-rule:evenodd" />
        <path
           id="path35684"
           d="m 410.857,331.493 c 0.24,0.056 0.081,0.244 0,0.346 -0.195,-0.059 0.043,-0.223 0,-0.346 z"
           inkscape:connector-curvature="0"
           style="clip-rule:evenodd;fill:#808285;fill-rule:evenodd" />
        <path
           id="path35686"
           d="m 356.142,337.475 c 0.149,-0.035 0.091,0.133 0.202,0.137 -0.028,0.171 -0.264,0.005 -0.202,-0.137 z"
           inkscape:connector-curvature="0"
           style="clip-rule:evenodd;fill:#808285;fill-rule:evenodd" />
        <path
           id="path35688"
           d="m 227.388,350.533 c 0.629,7.979 4.675,14.291 11.013,16.718 -7.526,0.341 -11.922,-8.785 -11.013,-16.718 z"
           inkscape:connector-curvature="0"
           style="clip-rule:evenodd;fill:#808285;fill-rule:evenodd" />
        <path
           id="path35690"
           d="m 395.701,350.533 c 0.957,8.043 -3.255,16.781 -10.945,16.785 6.354,-2.69 10.412,-8.301 10.945,-16.785 z"
           inkscape:connector-curvature="0"
           style="clip-rule:evenodd;fill:#808285;fill-rule:evenodd" />
        <path
           id="path35692"
           d="m 228.749,364.737 c 3.908,2.681 7.445,5.662 13.052,6.051 5.246,0.361 8.613,-3.336 13.866,-2.65 0.099,0.353 -0.092,0.687 -0.205,1.018 -2.136,-0.009 -4.125,1.188 -6.188,1.564 -7.244,4.911 -16.836,-1.022 -21.003,-5.917 0.181,-10e-4 0.388,0.026 0.478,-0.066 z"
           inkscape:connector-curvature="0"
           style="clip-rule:evenodd;fill:#808285;fill-rule:evenodd" />
        <path
           id="path35694"
           d="m 394.882,364.802 c -3.767,3.409 -9.116,8.66 -15.836,7.886 -4.176,-0.479 -6.857,-3.499 -11.283,-3.533 -0.102,-0.308 -0.383,-0.636 -0.206,-1.018 5.498,-0.66 9.065,3.505 14.957,2.582 5.442,-0.854 8.376,-3.892 12.368,-5.917 z"
           inkscape:connector-curvature="0"
           style="clip-rule:evenodd;fill:#808285;fill-rule:evenodd" />
        <path
           id="path35696"
           d="m 246.287,383.091 c 2.069,-1.841 3.868,-4.19 7.137,-4.625 -0.516,2.296 -5.092,3.186 -7.137,4.625 z"
           inkscape:connector-curvature="0"
           style="clip-rule:evenodd;fill:#808285;fill-rule:evenodd" />
        <path
           id="path35698"
           d="m 376.873,383.091 c -2.56,-1.181 -4.714,-2.59 -7.344,-3.81 2.022,-2.018 5.526,2.337 7.344,3.81 z"
           inkscape:connector-curvature="0"
           style="clip-rule:evenodd;fill:#808285;fill-rule:evenodd" />
        <path
           id="path35700"
           d="m 224.397,386.285 c 0.084,-0.572 2.781,-3.651 2.923,-2.445 0.123,1.051 -1.75,2.202 -2.923,2.445 z"
           inkscape:connector-curvature="0"
           style="clip-rule:evenodd;fill:#808285;fill-rule:evenodd" />
        <path
           id="path35702"
           d="m 398.758,386.15 c -0.854,0.146 -2.972,-1.243 -2.853,-2.311 0.132,-1.201 2.609,1.924 2.853,2.311 z"
           inkscape:connector-curvature="0"
           style="clip-rule:evenodd;fill:#808285;fill-rule:evenodd" />
        <path
           id="path35704"
           d="m 261.448,385.472 c -0.599,-0.215 -1.963,0.225 -1.975,-0.818 0.789,-0.332 2.013,-0.115 1.975,0.818 z"
           inkscape:connector-curvature="0"
           style="clip-rule:evenodd;fill:#808285;fill-rule:evenodd" />
        <path
           id="path35706"
           d="m 363.683,384.654 c -0.037,0.98 -1.299,0.531 -1.905,0.818 -0.147,-0.822 1.235,-1.188 1.905,-0.818 z"
           inkscape:connector-curvature="0"
           style="clip-rule:evenodd;fill:#808285;fill-rule:evenodd" />
        <path
           id="path35708"
           d="m 273.002,389.413 c 0,-0.271 0.346,-0.194 0.27,-0.545 0.455,-0.02 0.741,-0.213 0.954,-0.477 2.516,-0.576 0.27,3.262 -1.224,1.022 z"
           inkscape:connector-curvature="0"
           style="clip-rule:evenodd;fill:#808285;fill-rule:evenodd" />
        <path
           id="path35710"
           d="m 349.887,388.868 c -0.062,0.333 0.226,0.318 0.271,0.545 -2.214,2.359 -3.388,-2.555 -0.271,-0.545 z"
           inkscape:connector-curvature="0"
           style="clip-rule:evenodd;fill:#808285;fill-rule:evenodd" />
        <path
           id="path35712"
           d="m 277.758,405.384 c 0.642,-1.987 1.5,-3.936 1.836,-6.389 -0.582,0.26 -0.792,1.472 -1.631,1.699 2.474,-4.237 0.293,-8.641 -2.04,-11.42 9.972,-3.179 6.303,12.856 1.835,16.11 z"
           inkscape:connector-curvature="0"
           style="clip-rule:evenodd;fill:#808285;fill-rule:evenodd" />
        <path
           id="path35714"
           d="m 345.263,400.695 c -0.833,-0.278 -1.043,-1.176 -1.567,-1.765 -0.011,2.426 1.121,4.403 1.699,6.454 -3.825,-3.452 -8.44,-17.607 1.088,-16.721 1.703,2.5 -2.53,3.242 -2.442,7.139 0.033,1.776 0.633,3.175 1.222,4.893 z"
           inkscape:connector-curvature="0"
           style="clip-rule:evenodd;fill:#808285;fill-rule:evenodd" />
        <path
           id="path35716"
           d="m 295.229,399.613 c 0.308,1.194 0.804,3.085 -0.202,4.008 0.503,-1.306 -1.316,-3.388 0.202,-4.008 z"
           inkscape:connector-curvature="0"
           style="clip-rule:evenodd;fill:#808285;fill-rule:evenodd" />
        <path
           id="path35718"
           d="m 328.131,403.482 c -0.07,0.195 -0.287,-0.015 -0.41,0 -0.179,-1.49 -0.066,-2.632 0.141,-3.804 1.589,0.441 -0.193,2.628 0.269,3.804 z"
           inkscape:connector-curvature="0"
           style="clip-rule:evenodd;fill:#808285;fill-rule:evenodd" />
        <path
           id="path35720"
           d="m 263.416,400.289 c 0.436,2.064 -1.14,3.771 -2.313,4.896 0.665,-1.336 1.079,-3.723 2.313,-4.896 z"
           inkscape:connector-curvature="0"
           style="clip-rule:evenodd;fill:#808285;fill-rule:evenodd" />
        <path
           id="path35722"
           d="m 360.352,400.493 c 0.278,1.879 1.201,3.146 1.767,4.554 -0.962,-0.299 -3.694,-4.356 -1.767,-4.554 z"
           inkscape:connector-curvature="0"
           style="clip-rule:evenodd;fill:#808285;fill-rule:evenodd" />
        <path
           id="path35724"
           d="m 357.496,414.431 c 0.111,-0.11 0.217,-0.031 0.342,0 -0.039,0.404 0.095,0.576 0,0.88 -0.234,-0.174 -0.138,-0.678 -0.342,-0.88 z"
           inkscape:connector-curvature="0"
           style="clip-rule:evenodd;fill:#808285;fill-rule:evenodd" />
        <path
           id="path35726"
           d="m 285.103,435.025 c 0.127,0.061 0.181,0.297 0.065,0.41 -0.241,-0.058 -0.006,-0.171 -0.065,-0.41 z"
           inkscape:connector-curvature="0"
           style="clip-rule:evenodd;fill:#808285;fill-rule:evenodd" />
        <path
           id="path35728"
           d="m 338.053,435.025 c 0.087,0.107 0.06,0.255 0,0.41 -0.191,-0.113 -0.08,-0.256 0,-0.41 z"
           inkscape:connector-curvature="0"
           style="clip-rule:evenodd;fill:#808285;fill-rule:evenodd" />
        <path
           id="path35730"
           d="m 404.062,398.862 c -0.641,4.337 -5.137,6.595 -9.721,6.385 -10.512,-0.466 -13.326,-14.002 -24.678,-13.455 -9.227,1.44 -7.265,13.538 -1.764,17.605 3.444,2.719 7.324,9.325 4.279,14.41 -0.119,5.721 -1.377,10.607 -3.667,14.346 -1.907,-0.678 -3.609,-1.56 -4.082,-3.673 -1.046,3.195 -0.463,7.754 -4.008,8.228 -3.325,0.444 -5.819,-5.084 -7.139,-7.409 -1.344,4.501 -2.083,9.604 -5.641,11.896 -3.365,-1.327 -5.162,-4.221 -6.529,-7.546 -1.185,3.642 -2.624,12.062 -7.137,11.83 -4.424,-0.23 -5.402,-7.378 -7.205,-10.675 -1.189,3.163 -1.465,7.234 -4.146,8.903 -0.37,2.189 -3.702,9.093 -5.71,6.663 -3.777,-4.572 -3.859,-14.283 -5.304,-20.596 -1.574,6.67 -1.561,16.157 -5.369,20.664 -1.952,2.313 -5.375,-4.452 -5.64,-6.593 -2.632,-1.745 -3.074,-5.675 -4.148,-8.977 -1.878,3.081 -2.786,10.643 -7.342,10.677 -4.328,0.03 -5.917,-7.803 -6.933,-11.829 -1.498,3.134 -3.343,6.253 -6.527,7.478 -3.711,-2.158 -4.455,-7.286 -5.71,-11.896 -1.29,3.074 -3.194,5.487 -5.778,7.141 -3.686,2.341 -5.254,-4.919 -5.305,-7.959 -0.499,1.832 -2.313,3.188 -4.146,3.673 -2.443,-3.633 -3.624,-8.895 -3.738,-14.274 -2.828,-4.5 0.274,-11.174 3.604,-13.733 1.658,-2.973 6.064,-5.876 5.845,-10.601 -0.146,-3.185 -3.21,-7.745 -6.795,-7.688 -7.464,0.121 -12.922,5.914 -17.063,10.062 -4.312,4.843 -16.544,4.485 -17.472,-2.989 -1.8,-0.43 -3.026,-3.121 -2.652,-5.579 -2.581,-1.992 -4.271,-4.241 -5.503,-7.201 -1.437,-3.454 -1.704,-4.229 -0.478,-8.157 1.265,-4.037 5.191,-2.828 8.975,-4.485 -3.149,-8.433 -3.883,-19.146 -6.324,-28.758 -3.174,-12.509 -10.258,-26.633 -5.234,-40.376 -1.423,-8.532 -3.938,-15.688 -3.874,-24.882 0.066,-9.119 4.044,-15.698 6.662,-23.927 1.321,-2.846 2.259,-6.083 3.875,-8.632 15.463,-30.995 53.64,-45.001 92.384,-46.768 2.407,0.474 6.49,0.409 9.244,0.067 38.565,1.49 76.583,15.881 92.517,46.292 1.319,3.512 3.354,7.249 4.351,11.081 5.146,9.802 7.237,20.692 5.03,33.31 -0.954,5.432 -3.049,11.84 -1.905,17.401 2.696,13.053 -2.655,27.581 -7.134,38.952 -0.193,9.824 -3.412,17.959 -5.305,26.172 2.958,1.848 8.619,0.463 8.976,4.486 3.486,5.854 -2.263,12.041 -5.979,15.426 0.255,2.619 -0.69,4.968 -2.657,5.51 z M 336.286,205.328 c 5.947,2.985 11.664,6.192 15.363,11.42 -18.04,-16.898 -61.855,-16.797 -80.145,0 3.687,-5.281 9.623,-8.539 15.432,-11.485 -30.033,4.468 -56.772,16.34 -69.542,40.92 3.204,-1.534 6.001,-3.833 8.905,-5.438 -12.454,10.015 -20.026,24.66 -19.783,44.869 0.152,12.738 6.308,23.145 5.441,35.546 -0.213,2.995 -0.521,6.166 0.134,9.316 0.142,0.268 0.302,0.641 0.068,0.816 -2.95,-4.524 -0.693,-12.472 -3.331,-16.928 -2.858,18.61 9.339,29.609 9.925,44.866 -0.883,-2.467 -1.699,-5.358 -2.857,-7.75 0.917,7.313 3.346,13.932 6.05,20.257 0.719,-1.55 2.221,-3.176 1.769,-5.438 -0.888,-4.433 -3.969,-5.889 -3.741,-11.557 0.185,-4.537 1.872,-8.093 1.091,-12.644 -0.314,-2.648 -0.843,-4.845 -1.363,-7.202 -0.542,-1.158 -0.785,-2.617 -1.357,-3.741 -0.05,-0.208 0.115,-0.201 0.065,-0.41 -6.906,-11.523 0.84,-25.538 2.517,-37.453 0.984,2.148 0.163,4.612 0.271,7.136 2.106,-4.559 3.918,-14.749 -1.357,-17.402 2.211,-0.477 3.468,1.548 4.213,3.195 0.652,-3.189 -0.161,-6.893 -2.721,-7.885 -1.624,0.366 -2.682,1.303 -3.465,2.514 0.451,-2.314 2.481,-5.182 5.373,-3.466 -1.597,-7.663 -9.07,-1.565 -8.771,3.945 -0.118,-1.173 0.082,-2.877 0.41,-4.419 0.018,-0.213 -0.198,0.172 -0.209,-0.067 1.178,-1.825 1.808,-4.452 4.355,-5.237 -3.708,-0.42 -4.347,2.754 -5.847,4.759 -0.082,-3.758 3.517,-7.927 7.886,-5.982 -0.287,-1.737 -1.974,-2.543 -2.312,-3.809 2.367,0.503 3.71,2.568 4.758,4.759 0.055,-1.953 -0.531,-2.946 -0.341,-4.689 1.937,2.055 2.02,5.575 2.446,8.637 1.08,-2.147 2.413,-4.95 4.419,-5.508 -1.754,2.461 -3.712,5.078 -4.011,8.769 0,-0.101 0.187,-0.22 0.135,0 1.11,-1.202 1.727,-2.894 3.197,-3.739 -0.76,2.318 -2.771,4.345 -3.127,7.072 2.111,-2.172 3.797,-4.771 6.798,-6.051 -2.591,3.519 -6.078,6.818 -6.868,11.69 0.757,-0.72 1.002,-1.196 2.04,-1.699 0.007,0.449 0.525,0.382 0.613,0.749 -1.15,1.409 -2.544,2.94 -3.06,4.757 2.224,-1.809 5.487,-4.238 8.497,-4.144 -2.504,1.211 -4.982,3.26 -6.728,5.637 2.789,-1.989 6.811,-5.44 10.946,-3.94 -2.793,0.653 -5.617,1.275 -7.006,3.333 5.981,-0.793 9.047,3.909 12.308,6.932 -0.216,-0.075 -0.168,0.108 -0.273,0.136 -3.634,-1.8 -6.52,-6.229 -11.488,-5.371 1.898,0.846 3.639,1.516 4.418,3.533 -0.086,0.071 -0.251,0.069 -0.34,0.139 -2.192,-1.272 -5.658,-3.901 -8.226,-1.633 3.105,-0.097 5.297,1.609 6.795,3.536 1.228,-0.104 2.593,-0.116 3.47,0.883 6.783,3.323 10.189,10.022 14.477,15.84 7.633,1.998 11.91,7.352 16.861,12.031 0.226,-0.023 -0.265,-0.211 0,-0.272 0.539,0.082 0.849,0.465 1.293,-0.069 4.841,0.218 8.557,3.669 12.779,4.56 8.718,2.161 21.042,-7.783 26.579,1.354 -1.442,-1.525 -4.277,-2.942 -7,-2.24 1.537,0.818 3.391,1.318 4.35,2.717 -2.12,-0.925 -4.823,-2.041 -7.681,-1.831 6.279,0.499 9.187,9.118 6.319,14.746 1.695,-10.26 -4.554,-13.517 -13.795,-12.984 -1.518,0.09 -2.482,0.244 -3.81,0.205 -7.1,-0.198 -11.032,-3.906 -17.196,-3.874 1.368,1.937 3.154,3.46 4.689,5.234 -7.621,-4.188 -11.24,-13.321 -20.258,-16.112 1.558,2.047 4.426,3.146 5.507,5.44 -10.863,-4.5 -12.488,-18.24 -24.132,-21.958 1.119,2.108 1.868,4.594 2.583,6.932 -2.973,-3.261 -4.651,-9.67 -9.721,-10.806 -5.409,-1.213 -7.031,2.263 -9.042,5.849 -2.707,4.089 -4.413,9.783 -4.283,15.77 0.042,0.182 0.287,0.167 0.273,0.409 0.284,3.077 1.193,6.143 2.718,8.361 3.411,6.265 5.884,15.483 2.244,23.111 -1.101,8.04 7.025,12.382 8.632,19.986 0.835,3.939 -0.183,8.641 -3.06,10.194 0.471,-2.445 1.73,-5.168 0.951,-8.093 -1.412,4.207 -4.136,8.482 -9.377,7.957 5.109,-1.356 8.34,-5.757 8.021,-12.303 -0.232,7.271 -7.441,8.019 -14.072,6.73 -2.557,2.126 1.361,4.424 2.721,5.504 -1.515,-0.006 -3.133,-0.569 -4.146,-1.9 -2.276,6.202 7.185,6.753 10.941,4.484 -1.926,1.945 -5.055,3.272 -8.565,2.379 2.102,3.754 8.601,2.498 11.828,2.243 -2.27,1.611 -5.564,1.496 -8.157,1.973 3.54,2.509 9.54,0.967 13.461,1.564 -4.183,0.974 -8.626,2.229 -12.712,0.608 0.346,4.412 5.642,4.968 8.634,6.187 -1.769,0.519 -3.741,-0.436 -5.575,-0.201 2.591,3.275 10.354,2.444 12.167,-0.475 7.904,-2.481 10.348,-13.933 19.714,-14.822 -2.519,1.438 -5.968,3.084 -7.206,6.254 3.516,-2.814 7.171,-6.886 13.257,-5.572 -0.08,0.007 -0.074,0.104 -0.069,0.2 -3.491,0.271 -6.273,1.771 -7.953,4.216 3.628,-2.309 7.105,-1.675 11.147,-0.613 5.845,1.538 17.278,1.175 13.664,9.789 -0.066,-0.903 0.147,-1.627 -0.204,-2.309 -0.585,2.751 -1.143,6.439 -3.331,8.02 1.213,-2.575 2.497,-6.027 1.633,-8.904 -0.481,2.511 -0.639,5.707 -2.379,6.729 0.657,-2.456 1.042,-7.485 -1.904,-8.021 4.76,8.008 -2.52,14.174 -4.621,20.732 -0.059,-0.286 -0.031,-0.706 0.067,-1.016 0.127,0.045 0.046,0.202 0.205,0.066 -0.158,-4.253 3.091,-7.829 4.007,-11.896 -0.556,0.935 -0.806,2.181 -1.968,2.513 1.124,-1.697 1.715,-5.188 0.133,-7.273 0.642,3.062 -0.184,6.282 -1.903,8.089 0.758,-1.975 1.555,-4.736 0.475,-6.864 -0.16,5.721 -3.942,8.292 -6.251,12.371 0.736,-4.862 7.169,-10.147 3.603,-15.834 0.435,1.356 0.733,3.044 -0.204,3.869 -0.239,-1.744 -0.988,-4.002 -2.517,-4.622 4.234,8.334 -4.675,13.333 -7.544,19.034 2.479,-0.487 3.793,-2.502 5.642,-3.401 -1.193,3.176 -5.167,4.237 -6.322,7.005 1.103,-1.075 3.247,-1.828 4.758,-2.041 -1.522,1.333 -3.348,2.362 -4.488,4.08 1.179,-0.455 2.655,-0.812 3.74,-0.271 -1.251,0.738 -2.692,1.296 -3.536,2.445 0.98,0.265 2.146,1.074 2.857,1.154 0.061,-0.244 -0.439,-0.51 -0.341,-1.016 1.289,-0.336 2.133,0.822 2.717,1.628 0.291,-1.001 -0.532,-2.086 -0.202,-2.921 0.597,0.266 0.895,0.827 1.224,1.356 1.033,-1.423 2.831,-2.774 4.624,-2.986 -0.892,1.213 -2.24,1.686 -2.855,3.259 1.086,-0.385 2.399,-0.894 3.331,-0.2 -0.608,0.524 -2.02,0.608 -2.31,1.221 2.968,-0.285 5.357,1.377 7.137,3.058 -0.149,-1.484 -1.304,-2.588 -1.155,-3.67 -0.218,-0.099 -0.439,-0.198 -0.478,-0.475 0.14,-0.017 0.019,-0.302 0.206,-0.27 1.49,0.295 1.712,1.692 2.517,2.783 1.124,-1.408 3.146,-3.668 5.095,-3.125 -1.075,0.848 -2.39,1.46 -2.919,2.856 3.002,-1.521 7.756,-0.136 9.04,2.72 -0.005,-1.546 -1.385,-2.536 -0.68,-3.81 0.713,0.577 1.07,1.512 1.562,2.312 0.959,-2.152 3.633,-4.437 5.914,-3.945 -2.151,1.022 -3.674,2.37 -4.351,4.762 3.246,-4.129 9.503,0.244 11.492,2.991 -0.185,-1.75 -1.453,-2.404 -1.702,-4.082 1.28,0.493 1.767,1.771 2.65,2.653 -0.116,-1.812 -0.991,-3.347 -0.815,-5.101 0.956,1 1.631,2.854 2.04,4.624 1.083,-1.409 2.571,-2.776 4.624,-2.991 -1.038,1.275 -2.77,2.216 -3.265,3.807 2.26,-3.769 8.657,-1.528 11.15,0.478 -0.384,-1.998 -1.571,-3.188 -2.448,-4.692 0.252,0.112 0.13,-0.012 0.27,-0.138 0.991,0.531 1.542,1.497 2.312,2.245 -0.131,-2.144 -1.813,-3.633 -1.835,-5.237 1.352,1.304 2.146,3.16 3.06,4.896 0.004,-1.106 2.695,-5.004 2.925,-4.825 0.673,0.534 -2.476,3.853 -1.838,5.166 0.807,-0.739 1.287,-1.831 2.314,-2.174 -0.107,0.238 0.228,0.041 0.203,0.205 -0.982,1.352 -2.125,2.541 -2.379,4.622 2.506,-2.339 8.833,-3.981 11.216,-0.615 -0.857,-1.479 -2.16,-2.508 -3.332,-3.671 1.648,-0.053 3.432,1.607 4.62,2.857 0.436,-1.729 1.003,-3.659 2.111,-4.488 -0.204,1.79 -0.727,3.185 -0.952,5.032 0.925,-0.846 1.41,-2.126 2.647,-2.653 -0.251,1.647 -1.495,2.311 -1.695,4.017 2.052,-2.488 8.269,-7.137 11.487,-2.926 -0.561,-2.513 -2.377,-3.765 -4.282,-4.828 2.749,-0.184 4.598,1.992 5.979,3.942 0.396,-0.851 0.816,-1.676 1.499,-2.243 0.191,0.32 0.134,0.708 -0.073,0.954 0.081,0.103 0.2,0.164 0.279,0.27 -0.413,0.705 -1.008,1.582 -0.889,2.586 1.312,-2.923 5.936,-4.084 9.042,-2.789 -0.617,-1.333 -1.91,-1.988 -2.989,-2.855 2.286,-0.281 3.852,1.892 5.234,3.193 0.614,-1.129 1.01,-2.476 2.442,-2.783 0.07,0.085 0.07,0.248 0.138,0.336 -0.597,1.185 -1.365,2.472 -1.496,4.078 1.637,-1.816 4.23,-3.18 7.139,-3.128 -3.091,-0.912 -1.836,-1.985 0.883,-1.017 -0.506,-1.485 -1.969,-2.015 -2.785,-3.192 1.754,0.246 3.505,1.649 4.62,2.986 0.304,-0.538 0.564,-1.115 1.227,-1.289 0.136,0.975 -0.623,2.044 -0.204,2.922 0.486,-0.853 1.375,-2.016 2.649,-1.633 0.04,0.515 -0.346,0.604 -0.406,1.021 0.939,-0.172 1.847,-0.953 2.989,-1.154 -0.755,-1.284 -2.384,-1.696 -3.536,-2.583 1.176,-0.415 2.454,0 3.672,0.268 -1.08,-1.705 -3.153,-2.778 -4.416,-4.073 1.669,0.497 3.536,0.988 4.756,2.106 -1.131,-2.747 -5.281,-3.889 -6.252,-7.005 1.816,1.156 3.064,2.876 5.509,3.401 -2.892,-5.787 -11.596,-10.681 -7.618,-19.101 -1.584,0.896 -2.16,3.065 -2.511,4.62 -0.884,-0.956 -0.399,-2.987 -0.07,-4.01 -3.737,5.87 2.892,11.242 3.468,16.043 -2.135,-4.035 -5.898,-6.788 -6.257,-12.371 -1.01,2.171 -0.089,4.732 0.34,6.661 -1.582,-2.005 -2.113,-4.727 -1.767,-7.954 -1.465,2.109 -0.865,5.621 0.136,7.342 -1.048,-0.381 -1.227,-1.625 -1.903,-2.379 0.999,4.02 4.188,7.55 3.942,11.695 -2.273,-5.826 -8.868,-12.491 -4.214,-19.717 -3.136,0.526 -2.52,5.591 -2.041,8.021 -1.737,-1.371 -1.784,-4.654 -2.379,-6.798 -0.825,3.137 0.715,6.719 1.633,8.973 -2.119,-1.882 -2.53,-5.028 -3.261,-8.02 -0.393,0.731 -0.057,1.566 -0.276,2.309 -3.47,-8.02 7.473,-8.474 13.94,-9.789 3.017,-2.495 8.033,-0.431 11.011,0.545 -1.697,-2.479 -4.834,-3.858 -8.024,-4.281 5.738,-1.427 9.64,2.612 13.19,5.506 -1.107,-2.93 -4.371,-4.998 -7.139,-6.053 0.117,-0.134 -0.004,-0.085 0,-0.268 9.548,1.259 11.674,12.443 19.714,14.889 2.246,3.093 9.657,3.776 12.101,0.401 -2.142,-0.157 -3.349,0.784 -5.505,0.207 3.612,-1.011 8.364,-2.229 8.632,-6.119 -4.046,1.55 -9.116,0.396 -12.779,-0.751 4.033,-0.276 10.045,1.097 13.39,-1.494 -2.648,-0.404 -5.697,-0.317 -8.086,-1.9 3.523,0.378 10,1.402 11.826,-2.243 -3.396,0.854 -7.011,-0.572 -8.494,-2.445 4.346,2.611 12.734,1.732 10.938,-4.418 -1.153,1.111 -2.482,2.084 -4.209,1.765 3.364,-0.787 5.418,-6.754 0.065,-5.098 -5.579,1.726 -11.219,-1.567 -11.486,-7.001 -0.126,6.592 2.766,10.736 8.089,12.369 -5.202,0.491 -8.045,-4.262 -9.447,-8.023 -0.741,2.795 0.763,6.067 0.884,8.093 -2.66,-1.852 -3.78,-6.409 -2.857,-10.267 1.149,-5.104 3.748,-7.972 6.593,-11.485 4.333,-5.353 0.396,-11.528 0.204,-18.421 -0.228,-8.263 6.365,-13.387 6.797,-21.55 0.077,-0.173 0.272,-0.232 0.274,-0.477 0.159,-2.199 -0.181,-3.839 -0.474,-5.846 -0.901,-6.061 -5.246,-16.968 -11.83,-15.703 -5.963,1.143 -7.692,6.82 -10.811,10.873 0.749,-2.152 1.533,-4.851 2.583,-6.932 -11.667,3.646 -13.337,17.662 -24.197,21.89 1.429,-2.218 3.991,-3.301 5.57,-5.372 -9.017,2.745 -12.603,11.87 -20.187,16.045 1.584,-1.723 3.357,-3.256 4.69,-5.234 -6.072,-0.193 -10.156,3.928 -17.336,3.941 -1.21,0.004 -2.364,-0.123 -3.808,-0.205 -9.247,-0.508 -15.31,2.627 -13.797,12.984 -2.659,-6.035 0.151,-13.902 6.387,-14.818 -2.9,-0.083 -5.553,0.944 -7.613,1.834 0.995,-1.343 2.906,-1.762 4.284,-2.72 -2.797,-0.658 -5.45,0.827 -7.07,2.246 5.4,-8.867 17.73,0.741 26.78,-1.288 4.479,-1.043 7.596,-4.237 12.782,-4.56 -0.038,0.548 0.817,0.216 1.159,0.069 0.219,0.109 -0.3,0.31 0.068,0.34 4.85,-4.775 9.24,-10.02 16.789,-12.099 4.38,-5.75 7.72,-12.536 14.547,-15.84 0.735,-0.959 2.255,-0.946 3.395,-0.883 1.551,-1.912 3.816,-3.549 6.8,-3.605 -2.783,-2.277 -6.202,0.728 -8.432,1.632 -0.066,-0.087 -0.066,-0.249 -0.129,-0.339 0.995,-1.608 2.711,-2.5 4.481,-3.329 -5.3,-0.939 -7.894,4.094 -11.755,5.235 3.442,-2.976 6.083,-7.597 12.233,-6.867 -1.153,-2.023 -4.242,-2.688 -6.933,-3.399 4.339,-1.28 8.042,2.055 10.878,4.007 -1.637,-2.534 -4.194,-4.141 -6.663,-5.848 3.449,0.532 6.168,2.648 8.496,4.287 -0.67,-1.913 -1.907,-3.259 -3.059,-4.69 0.114,-0.337 0.506,-0.405 0.68,-0.681 0.905,0.463 1.203,1.116 2.039,1.632 -0.997,-5.099 -4.58,-8.333 -6.865,-11.69 2.891,1.391 4.541,4.02 6.8,6.051 -0.553,-2.786 -2.503,-4.887 -3.198,-7.072 1.306,0.935 2.098,2.385 2.991,3.739 0.229,-0.188 0.243,-0.051 0.41,0.134 -0.415,-3.867 -2.406,-6.519 -4.079,-8.902 2.21,0.848 3.183,3.462 4.417,5.508 0.345,-3.205 0.602,-6.649 2.377,-8.637 0.205,1.641 -0.41,2.852 -0.336,4.689 1.112,-2.01 2.31,-4.303 4.822,-4.689 -0.687,1.295 -2.03,2.012 -2.375,3.739 4.36,-1.931 8.049,2.301 7.813,5.982 -1.233,-2.213 -2.449,-5.41 -5.774,-4.692 2.468,0.68 3.148,3.153 4.281,5.17 -0.144,0.978 0.541,3.206 0.271,4.419 0.329,-5.623 -7.216,-11.521 -8.769,-3.878 2.757,-1.605 5.043,1.064 5.164,3.265 -0.565,-1.317 -1.842,-1.922 -3.264,-2.379 -2.513,1.041 -3.392,4.735 -2.715,7.952 0.749,-1.624 2.254,-3.774 4.214,-3.126 -5.312,2.484 -3.515,13.019 -1.223,17.404 -0.078,-2.618 -0.853,-5.588 0.268,-7.141 1.621,12.213 9.104,25.708 2.448,37.866 -0.622,1.073 -0.843,2.556 -1.356,3.739 -4.023,7.318 1.528,16.939 -0.684,24.675 -1.075,3.783 -5.887,8.063 -1.49,12.099 2.594,-6.299 5.343,-13.271 5.912,-20.257 -1.03,2.483 -1.912,5.113 -2.786,7.75 0.829,-15.883 12.9,-26.042 9.857,-44.866 -2.56,4.737 -0.307,11.988 -3.266,16.928 0.938,-3.44 0.193,-7.029 0.205,-10.877 0.033,-13.635 6.431,-25.382 5.776,-39.565 -0.839,-18.293 -9.418,-30.876 -20.055,-40.175 2.98,1.953 5.568,3.888 8.84,5.508 -12.576,-24.578 -39.951,-36.722 -69.474,-40.853 z M 256.28,423.061 c 0.128,0.03 0.124,0.193 0.338,0.136 0.028,-0.222 -0.291,-0.389 -0.338,-0.136 z m 110.258,0.136 c 0.189,0.055 0.176,-0.094 0.34,-0.067 0,-0.047 0,-0.09 0,-0.139 -0.07,0 -0.083,-0.052 -0.136,-0.068 -0.021,0.142 -0.187,0.138 -0.204,0.274 z m -113.251,0.204 c -0.243,3.293 1.461,5.972 2.041,8.563 -0.984,-0.394 -1.125,-1.641 -1.836,-2.309 0.494,2.111 0.599,4.616 1.902,5.913 2.741,-1.157 3.424,-4.304 2.722,-7.204 -0.333,-1.359 -4.2,-3.001 -1.158,-2.585 -0.315,-1.551 -2.067,-2.256 -3.671,-2.378 z m 114.612,12.168 c 1.076,-1.461 1.354,-3.719 1.764,-5.845 -0.759,0.515 -0.901,2.343 -1.969,2.106 1.078,-2.513 2.215,-5.168 2.241,-8.359 -1.708,-0.06 -3.4,0.844 -3.737,2.309 0.297,-0.108 0.695,-0.119 1.016,-0.202 0.138,0.112 0.247,0.253 0.411,0.339 -0.595,0.493 -1.822,1.001 -1.835,1.63 -1.712,2.581 -0.961,7.275 2.109,8.022 z M 269.6,432.105 c 1.018,-5.608 -5.41,-9.495 -9.651,-6.26 -0.833,3.732 0.404,9.621 2.108,12.989 -0.597,0.067 -0.94,-0.034 -1.428,-0.207 2.948,4.815 4.612,-2.556 5.506,-5.302 0.275,1.828 0.154,3.231 0.067,4.896 1.34,-1.68 2.968,-3.735 3.398,-6.116 z m 83.954,0.068 c 0.436,2.312 2.116,4.426 3.465,6.049 -0.193,-1.871 -0.242,-3.469 0.068,-4.896 0.729,2.404 2.37,10.054 5.44,5.302 -0.451,0.115 -1.025,0.447 -1.429,0.066 1.384,-3.11 3.064,-7.32 2.103,-11.553 0.096,0.087 0.14,0.208 0.208,0 -0.121,-0.472 -0.251,-0.569 -0.208,-1.296 -4.334,-3.297 -10.684,0.824 -9.647,6.328 z m -72.057,-1.841 c -0.789,-2.37 -3.357,-3.397 -4.961,-4.754 -1.104,0.068 -1.991,-0.318 -2.923,-0.205 -0.792,0.434 -1.264,1.184 -1.836,1.836 -0.448,2.649 0.403,5.518 1.087,7.271 -0.981,0.108 -1.334,-1.555 -1.833,-2.375 -0.354,4.424 1.848,7.767 3.53,10.534 -0.424,0.06 -0.669,-0.331 -1.083,-0.478 4.502,5.53 9.98,-5.927 8.019,-11.829 z m 65.124,-4.754 c -1.637,1.397 -4.167,2.407 -4.964,4.754 -2.005,5.921 3.551,17.359 8.024,11.83 -0.37,0.148 -0.746,0.638 -1.091,0.412 1.805,-2.686 3.776,-5.949 3.604,-10.469 -0.557,0.796 -0.825,2.252 -1.762,2.445 1.377,-3 2.257,-11.128 -3.811,-8.972 z m -63.152,6.455 c 0.017,-0.219 -0.081,-0.323 -0.272,-0.34 -0.226,3.663 0.178,9.441 1.971,12.169 0.115,-1.881 0.358,-3.638 1.088,-5.302 0.759,1.532 -0.538,9.837 2.516,9.857 2.353,0.014 1.708,-7.728 2.108,-8.903 0.744,2.279 0.787,5.234 0.814,7.611 2.2,-4.158 4.407,-9.123 4.352,-14.887 -1.886,-2.396 -3.995,-4.624 -7.413,-5.3 -0.011,1.692 0.316,3.552 -0.269,4.62 -0.047,-0.16 -0.308,-0.103 -0.341,-0.271 0.017,-1.644 -0.459,-3.053 -0.817,-4.559 -0.259,2.016 0.217,3.863 -0.407,5.509 -0.721,-1.331 -0.816,-3.03 -0.951,-4.825 -1.139,0.653 -1.829,1.749 -2.515,2.853 0.057,0.193 0.232,0.264 0.339,0.41 -0.124,0.168 -0.44,0.151 -0.409,0.473 0.302,0.029 0.169,-0.375 0.546,-0.271 -0.065,0.383 -0.023,0.697 0,1.086 -0.142,-0.145 -0.219,0.01 -0.34,0.07 z m 51.391,-0.474 c -0.74,-1.395 -0.219,-2.918 -0.338,-4.62 -3.413,0.696 -5.568,2.906 -7.412,5.368 0.106,6.006 2.111,10.728 4.486,14.887 -0.205,-2.267 0.032,-5.745 0.68,-7.68 0.376,2.413 -0.102,7.411 2.105,8.968 3.051,-1.352 1.657,-6.992 2.652,-9.922 0.486,1.781 0.92,3.092 0.952,5.302 1.913,-3.134 2.19,-8.145 1.975,-12.169 -0.342,0.271 -0.268,0.228 -0.61,0.34 0.168,-0.276 -0.072,-0.784 0.066,-1.154 0.287,-0.128 0.404,0.482 0.474,0.137 -0.072,-0.156 -0.257,-0.198 -0.338,-0.339 0.166,-0.23 0.277,-0.26 0.271,-0.545 -0.755,-0.987 -1.304,-2.064 -2.513,-2.718 -0.113,1.814 -0.208,3.646 -0.954,4.825 -0.615,-1.402 -0.032,-3.956 -0.477,-5.509 -0.445,1.752 -0.479,3.413 -1.019,4.829 z m -26.106,10.804 c 0.546,-3.503 1.041,-7.343 1.091,-10.872 -2.039,-4.414 -9.508,-4.722 -11.488,-0.202 -2.135,4.864 0.999,12.153 1.766,16.383 -0.244,-2.719 -0.363,-4.894 0.34,-7.139 0.678,3.225 0.538,8.045 2.31,10.874 0.108,-1.469 -0.811,-3.316 0.273,-4.42 0.425,1.742 0.611,3.859 1.155,5.646 3.129,0.095 3.914,-6.098 4.553,-10.27 z m 16.182,-10.67 c -1.053,-4.788 -10.516,-4.938 -11.557,-0.134 -0.705,3.251 0.608,8.438 1.086,11.829 0.422,2.957 1.541,9.291 4.486,9.244 0.618,-1.805 0.686,-3.861 1.226,-5.646 1.083,1.013 -0.063,3.207 0.345,4.42 1.66,-2.984 1.414,-7.993 2.306,-10.874 0.475,2.103 0.466,5.071 0.271,7.139 1.258,-4.808 3.048,-10.453 1.837,-15.978 z"
           inkscape:connector-curvature="0"
           style="clip-rule:evenodd;fill:#808285;fill-rule:evenodd" />
        <path
           id="path35732"
           d="m 253.966,377.925 c -0.065,0.138 -0.259,0.144 -0.474,0.136 0.08,-0.126 0.354,-0.053 0.474,-0.136 z"
           inkscape:connector-curvature="0"
           style="clip-rule:evenodd;fill:#808285;fill-rule:evenodd" />
        <path
           id="path35734"
           d="m 239.488,323.881 c -0.31,-0.305 -0.649,-0.574 -1.018,-0.813 -4.295,0.298 -7.164,3.168 -6.121,7.885 -2.313,-3.707 -0.921,-9.678 4.42,-9.043 -5.37,-3.556 -7.115,3.323 -5.984,8.157 1.095,4.662 3.434,11.25 0.885,15.772 1.052,-7.267 -2.198,-13.668 -2.854,-21.145 -1.438,5.703 2.564,12.85 -0.067,18.97 0.779,-8.25 -4.098,-13.494 -4.147,-21.143 -2.378,3.475 0.574,8.87 0.473,12.165 -2.407,-4.523 -5.427,-11.774 -1.424,-16.31 8.999,-6.565 19.748,3.387 25.219,8.975 -2.421,-1.159 -4.526,-3.699 -7.681,-4.423 4.847,8.363 17.413,9.962 25.762,14.823 -1.734,-0.854 -5.056,-1.691 -7.817,-2.18 5.51,6.814 17.966,4.725 25.969,3.604 -2.279,0.904 -5.178,1.063 -7.21,2.312 2.702,0.973 5.577,-0.07 8.364,-0.343 9.467,-0.916 19.584,5.425 15.024,16.045 -0.503,-1.924 1.076,-5.14 -0.545,-7.137 0.003,1.73 -0.006,4.008 -0.749,5.845 -0.491,-1.31 -0.471,-3.444 -1.36,-4.552 1.551,7.171 -3.015,11.74 -4.485,17.195 0.079,-4.246 1.989,-9.148 1.699,-14.141 -0.61,4.127 -2.155,7.318 -3.466,10.741 0.17,-4.055 3.044,-8.549 1.086,-13.595 -0.002,2.69 0.797,6.789 -0.951,8.971 -0.354,-1.495 0.504,-3.706 0.273,-5.366 -0.958,8.094 -3.654,15.609 -9.381,19.849 1.345,-2.807 3.257,-5.23 4.69,-8.156 -7.158,6.885 -14.111,14.281 -25.831,16.382 4.809,-1.747 9.323,-4.358 13.119,-7.341 -3.831,-0.677 -7.227,0.873 -9.925,2.175 1.114,-1.938 3.689,-2.753 5.985,-3.604 -6.396,-2.045 -11.834,3.33 -17.201,3.536 2.681,-1.852 6.547,-4.301 10.333,-5.032 4.147,-0.802 8.222,0.743 12.031,-0.139 5.01,-1.154 6.351,-5.606 9.858,-8.357 -6.206,6.483 -18.954,7.577 -29.367,4.824 3.884,-2.186 8.46,0.797 12.985,-0.134 -5.321,-1.924 -10.797,-5.328 -16.928,-3.942 -3.984,0.9 -8.254,3.585 -12.508,1.563 0.12,-0.143 0.236,-0.117 0.135,-0.341 1.73,0.052 3.273,-0.25 4.966,-0.68 -6.144,-0.197 -11.695,-1.414 -14.007,-6.524 -1.707,-3.051 -2.425,-8.985 -1.223,-12.236 0.375,6.534 1.302,13.497 7.07,15.229 -1.872,-2.276 -4.089,-5.076 -4.553,-9.178 -0.374,1.846 0.86,4.089 1.153,5.711 -5.4,-4.834 -0.276,-12.896 -0.268,-18.763 0.004,-4.379 -2.732,-9.671 0,-13.801 -0.254,-0.072 -0.109,0.255 -0.343,0.206 1.197,-1.825 3.421,-3.085 5.915,-2.516 z m -4.83,3.875 c 1.601,-1.945 4.316,-2.133 7.208,-1.699 -1.596,-1.894 -6.481,-0.552 -7.208,1.699 z"
           inkscape:connector-curvature="0"
           style="clip-rule:evenodd;fill:#808285;fill-rule:evenodd" />
        <path
           id="path35736"
           d="m 330.44,355.153 c -0.281,1.637 0.382,3.709 0.34,5.366 -1.748,-2.127 -1.255,-5.643 -0.953,-8.904 -2.16,4.481 0.581,9.104 1.023,13.462 -1.301,-3.062 -2.896,-6.752 -3.468,-10.536 -0.416,4.987 1.601,9.68 1.629,14.002 -1.197,-5.242 -5.975,-9.647 -4.416,-17.13 -1.025,0.975 -0.906,3.206 -1.425,4.486 -0.585,-1.927 -0.748,-3.591 -0.683,-5.845 -1.715,1.633 -0.132,5.324 -0.612,7.069 -4.255,-10.007 4.739,-16.894 15.025,-15.978 2.728,0.246 5.591,1.274 8.362,0.479 -1.688,-1.507 -5.071,-1.538 -7.139,-2.448 8.149,1.257 20.71,3.031 25.899,-3.534 -2.617,0.145 -5.479,1.352 -7.679,1.832 8.825,-4.441 20.486,-6.225 25.695,-14.476 -3.197,0.54 -5.326,3.105 -7.754,4.42 4.782,-4.879 17.233,-16.57 25.156,-9.042 4.358,4.145 0.85,12.021 -1.361,16.31 0.143,-3.704 2.729,-8.373 0.612,-12.165 -0.291,7.468 -5.06,12.861 -4.216,21.074 -2.651,-5.727 1.271,-13.122 -0.067,-18.968 -0.609,7.355 -4.146,13.805 -2.786,21.142 -4.454,-7.831 4.493,-17.726 -0.68,-24.469 -1.463,-0.735 -3.221,-0.099 -4.559,0.541 5.458,-0.363 6.714,5.516 4.42,9.11 1.14,-5.184 -1.911,-7.386 -6.048,-7.885 -0.432,0.159 -0.666,0.514 -1.021,0.746 2.579,-0.42 4.686,0.827 5.846,2.585 -0.14,-0.021 -0.134,-0.185 -0.271,-0.206 2.677,7.294 -2.21,16.653 2.245,23.589 -0.139,3.545 -0.457,7.097 -2.584,8.975 0.509,-1.862 1.472,-3.873 1.223,-5.711 -0.545,3.71 -2.436,6.605 -4.553,9.108 5.698,-1.73 6.807,-8.5 6.93,-15.092 2.85,10.319 -3.766,19.812 -15.09,18.625 1.562,0.584 3.146,0.842 4.894,0.748 -0.074,0.202 -0.038,0.253 0.138,0.341 -8.362,0.99 -16.064,-3.551 -23.723,0 -1.699,0.784 -3.408,1.573 -5.71,2.312 4.129,1.13 9.168,-1.98 12.984,0.2 -10.394,2.516 -22.685,1.985 -29.299,-4.89 3.276,3.023 4.994,7.122 9.582,8.423 2.49,0.71 5.364,-0.577 8.16,-0.401 3.71,0.229 7.516,1.346 10.403,3.262 1.014,0.253 2.094,0.971 2.989,1.564 0.195,-0.179 0.418,0.027 0.678,0 0.112,0.298 0.572,0.283 0.344,0.746 -5.222,-0.239 -10.713,-5.515 -17.202,-3.605 2.179,1.01 4.951,1.735 5.98,3.674 -2.619,-1.312 -5.904,-2.862 -9.854,-2.175 3.718,3.105 8.47,5.674 13.051,7.341 -11.249,-2.015 -18.762,-9.454 -25.765,-16.382 1.284,2.83 3.31,5.539 4.62,8.017 -5.489,-3.89 -8.473,-11.541 -9.31,-19.707 z m 50.851,-29.096 c 3.11,-0.523 5.662,-0.078 7.2,1.631 -0.775,-2.191 -5.606,-3.517 -7.2,-1.631 z"
           inkscape:connector-curvature="0"
           style="clip-rule:evenodd;fill:#808285;fill-rule:evenodd" />
        <path
           id="path35738"
           d="m 295.162,386.625 c -1.667,2.729 -2.621,6.172 -3.807,9.382 -0.139,-13.311 14.475,-18.76 13.935,-31.607 -0.812,1.114 -0.832,3.015 -1.563,4.213 -0.323,-4.435 2.717,-10.136 4.214,-14.479 -1.396,0.835 -1.993,3.438 -2.99,4.486 -0.21,-9.757 13.544,-9.845 13.255,0 -0.991,-1.3 -1.523,-3.454 -2.921,-4.555 1.381,4.524 4.271,9.706 4.281,14.548 -0.806,-1.139 -0.92,-2.978 -1.562,-4.287 -0.988,12.777 14.023,18.371 13.798,31.682 -1.031,-3.318 -2.235,-6.465 -3.67,-9.382 1.616,3.072 2.118,8.068 0.749,11.421 -0.34,-2.256 0.436,-5.173 -0.749,-7.477 -0.287,2.134 -0.187,4.646 -1.562,5.706 -0.219,0.904 -0.608,2.204 -1.292,2.859 0.057,-2.486 2.094,-5.267 1.36,-8.771 -0.621,5.433 -3.501,8.603 -5.234,12.916 0.246,-3.249 2.292,-6.029 3.059,-9.517 -0.723,4.648 -7.122,8.367 -9.723,3.33 1.189,0.282 2.679,1.192 4.213,0.612 -3.155,-1.031 -6.923,-2.321 -7.341,-6.253 -0.506,3.887 -4.152,5.371 -7.409,6.185 1.403,0.751 3.097,-0.408 4.284,-0.544 -2.926,5.209 -9.044,1.219 -9.721,-3.33 0.66,3.297 2.621,6.038 3.127,9.517 -1.963,-4.326 -5.107,-7.8 -5.236,-13.392 -1.043,3.408 1.128,6.216 1.227,9.312 -0.584,-0.594 -1.095,-1.967 -1.293,-2.926 -1.346,-0.984 -1.368,-3.814 -1.495,-5.706 -1.152,2.029 -0.534,5.735 -0.679,7.477 -1.533,-2.949 -1.133,-8.401 0.745,-11.42 z m 11.895,-27.735 c 0.77,-0.319 1.03,-1.146 1.836,-1.428 -0.298,-1.004 1.374,-1.1 2.04,-0.747 -1.118,-2.26 -3.277,0.934 -3.876,2.175 z m 5.237,-2.245 c 0.696,-0.236 2.238,-0.17 1.97,0.748 0.747,0.368 1.069,1.151 1.833,1.497 -0.561,-1.259 -2.658,-4.341 -3.803,-2.245 z m -3.809,2.586 c 0.815,-0.238 1.843,-0.075 2.448,0.408 0.033,-0.081 0.071,-0.155 0.136,-0.205 -0.351,-0.937 -2.283,-1.113 -2.584,-0.203 z m 3.946,-0.136 c 0.14,0.061 0.021,0.384 0.201,0.41 0.359,-0.622 1.521,-0.31 2.106,-0.274 -0.342,-0.839 -1.737,-0.758 -2.307,-0.136 z m -9.52,29.773 c 2.861,-0.02 5.247,-3.04 7.882,-3.808 0.004,-0.16 -0.113,-0.198 -0.067,-0.406 -4.031,2.363 -11.484,4.542 -11.487,-2.924 -0.367,2.301 0.648,7.161 3.672,7.138 z m 9.246,-4.487 c -0.075,0.128 -0.088,0.321 -0.136,0.477 2.669,0.746 5.352,4.116 8.36,4.01 2.736,-0.096 4.021,-4.454 3.468,-7.138 0.211,7.488 -7.671,5.377 -11.692,2.651 z m 0.067,2.176 c 3.104,3.308 10.889,10.139 11.829,1.36 -2.547,7.391 -7.95,-0.516 -11.829,-1.36 z m -13.053,1.36 c 0.892,8.961 8.95,1.772 11.421,-1.223 -3.963,1.223 -8.998,8.382 -11.421,1.223 z m 21.891,8.089 c 1.318,-1.447 2.968,-2.925 3.33,-5.099 -1.35,1.44 -2.071,3.883 -4.01,4.56 -3.684,1.273 -5.824,-5.573 -8.36,-7.006 1.398,3.938 4.143,8.847 9.04,7.545 z m -18.218,-0.478 c -1.855,-1.064 -2.806,-3.037 -4.147,-4.62 1.592,8.758 11.82,4.667 12.096,-2.177 -2.525,2.281 -3.91,6.701 -7.949,6.797 z m 23.792,-5.234 c -0.027,-0.174 -0.038,-0.372 -0.136,-0.475 0.047,0.159 -0.121,0.533 0.136,0.475 z"
           inkscape:connector-curvature="0"
           style="clip-rule:evenodd;fill:#808285;fill-rule:evenodd" />
      </g>
    </g>
  </g>
</svg>
